# xmcd CD database file
#
# Track frame offsets:
#	150
#	4837
#	33985
#	58120
#	81372
#	106182
#	127085
#	145967
#	167702
#	183645
#	203060
#	221270
#	241310
#	261682
#	293785
#
# Disc length: 4256 seconds
#
# Revision: 1
# Processed by: cddbd v1.5.1PL0 Copyright (c) Steve Scherf et al.
# Submitted via: CDex 1.40Release
#
DISCID=e2109e0f
DTITLE=Paul Meader and Robin Nolan - Paul Meader and Robin Nolan The Gypsy Jazz Play Along CD - Volume 2a
DYEAR=2000
DGENRE=Jazz
TTITLE0=Paul Meader and Robin Nolan Six string tune up
TTITLE1=Out Of Nowhere
TTITLE2=Minor Blues
TTITLE3=All Of Me
TTITLE4=September Song
TTITLE5=Swing 42
TTITLE6=Daphne (slow)
TTITLE7=Daphne (fast)
TTITLE8=Belleville (slow)
TTITLE9=Belleville (fast)
TTITLE10=Noto Swing (slow)
TTITLE11=Noto Swing (fast)
TTITLE12=Hungaria
TTITLE13=Latcho Drom/Tchavalo Swing (slow)
TTITLE14=Latcho Drom/Tchavalo Swing (fast)
EXTD=YEAR: 2000 ID3G: 8
EXTT0=
EXTT1=
EXTT2=
EXTT3=
EXTT4=
EXTT5=
EXTT6=
EXTT7=
EXTT8=
EXTT9=
EXTT10=
EXTT11=
EXTT12=
EXTT13=
EXTT14=
PLAYORDER=
